<?xml version="1.0" encoding="utf-8"?>
<!-- Generator: Adobe Illustrator 25.0.0, SVG Export Plug-In . SVG Version: 6.00 Build 0)  -->
<svg version="1.1" xmlns="http://www.w3.org/2000/svg" xmlns:xlink="http://www.w3.org/1999/xlink" x="0px" y="0px"
	 viewBox="0 0 850 1000" style="enable-background:new 0 0 850 1000;" xml:space="preserve">
<style type="text/css">
	.st0{display:none;}
	.st1{display:inline;fill:#050404;}
	.st2{fill:#897974;}
	.st3{fill:#FFFFFF;}
	.st4{fill:none;stroke:#FFFFFF;stroke-width:9;stroke-miterlimit:10;}
	.st5{fill:#700D0D;}
	.st6{fill:#DB2323;}
	.st7{fill:#6D1D1D;}
	.st8{fill:#CC1F1F;}
</style>
<g id="Capa_3" class="st0">
	<rect class="st1" width="850" height="1000"/>
</g>
<g id="Capa_6">
	<polygon class="st2" points="104.98,322.74 108.96,664.59 167.34,700.62 357.6,807.98 368.04,803.42 567.34,909.85 813.11,723.09 
		658.8,658.11 659.91,322.74 371.1,213.15 	"/>
</g>
<g id="Capa_1">
	<g>
		<g>
			<path class="st3" d="M108.71,661.97c0-38.17,0-76.35,0-114.52c0-60.4,0-120.8,0-181.2c0-13.86,0-27.71,0-41.57
				c-1.1,1.45-2.2,2.89-3.3,4.34c31.88-13.13,63.75-26.25,95.63-39.38c48.26-19.88,96.53-39.75,144.79-59.63
				c6.53-2.69,13.05-5.38,19.58-8.06c1.59-0.66,3.41-1.17,4.91-2.02c2.43-1.38-0.39,1.06-1.07-0.45c0.57,1.27,7.67,2.86,8.9,3.32
				c7.08,2.64,14.17,5.29,21.25,7.93c49.02,18.3,98.05,36.6,147.07,54.9c23.65,8.83,47.31,17.66,70.96,26.49
				c12.85,4.8,25.66,10.39,38.75,14.47c0.58,0.18,1.15,0.43,1.73,0.65c-1.1-1.45-2.2-2.89-3.3-4.34
				c0.51,37.54,1.01,75.08,1.52,112.63c0.8,59.72,1.61,119.44,2.41,179.17c0.18,13.55,0.37,27.11,0.55,40.66c0.08,5.79,9.08,5.8,9,0
				c-0.51-37.54-1.01-75.08-1.52-112.63c-0.8-59.72-1.61-119.44-2.41-179.17c-0.18-13.55-0.37-27.11-0.55-40.66
				c-0.03-2.13-1.4-3.63-3.3-4.34c-30.86-11.52-61.72-23.04-92.58-34.56c-51-19.04-102-38.07-153-57.11
				c-13.59-5.07-27.18-10.15-40.77-15.22c-6.31-2.36-13.18,2.53-19.02,4.94c-45.61,18.78-91.22,37.56-136.83,56.35
				c-37.73,15.54-75.45,31.07-113.18,46.61c-0.64,0.26-1.28,0.53-1.91,0.79c-1.87,0.77-3.3,2.18-3.3,4.34c0,38.17,0,76.35,0,114.52
				c0,60.4,0,120.8,0,181.2c0,13.86,0,27.71,0,41.57C99.71,667.76,108.71,667.77,108.71,661.97L108.71,661.97z"/>
		</g>
	</g>
	<g>
		<g>
			<path class="st3" d="M365.83,456.59c0,19.98,0,39.96,0,59.94c0,31.76,0,63.53,0,95.29c0,12,0,24,0,36c0,30.78,0,61.57,0,92.35
				c0,21.62-0.91,43.45,0,65.06c0.08,1.91,0.33,3.82,0.5,5.73c2.26-1.3,4.51-2.59,6.77-3.89c-30.13-16.75-60.27-33.51-90.4-50.26
				c-47.6-26.47-95.21-52.93-142.81-79.4c-10.87-6.04-21.74-12.09-32.61-18.13c-5.07-2.82-9.61,4.95-4.54,7.77
				c30.13,16.75,60.27,33.51,90.4,50.26c47.6,26.47,95.21,52.93,142.81,79.4c10.87,6.04,21.74,12.09,32.61,18.13
				c2.76,1.53,7.09-0.34,6.77-3.89c-1.74-19.28-0.5-39.05-0.5-58.39c0-32.11,0-64.22,0-96.33c0-12.11,0-24.22,0-36.33
				c0-30.27,0-60.53,0-90.8c0-23.73,0.68-47.57,0-71.29c-0.01-0.41,0-0.82,0-1.23C374.83,450.8,365.83,450.79,365.83,456.59
				L365.83,456.59z"/>
		</g>
	</g>
	<g>
		<g>
			<path class="st3" d="M648.88,319.97c-31.68,14.98-63.36,29.95-95.04,44.93c-50.43,23.84-100.87,47.68-151.3,71.52
				c-11.49,5.43-22.98,10.86-34.47,16.29c1.51,0,3.03,0,4.54,0c-29.97-14.86-59.94-29.71-89.91-44.57
				c-47.77-23.68-95.54-47.36-143.31-71.04c-10.97-5.44-21.93-10.87-32.9-16.31c-5.17-2.56-9.74,5.2-4.54,7.77
				c31.4,15.56,62.79,31.13,94.19,46.69c48.31,23.95,96.62,47.9,144.94,71.84c6.63,3.29,13.26,6.57,19.89,9.86
				c2.5,1.24,5.41,3.34,8.18,3.97c2.97,0.68,7.32-2.28,9.9-3.49c6.43-3.04,12.85-6.07,19.28-9.11
				c47.81-22.6,95.63-45.2,143.44-67.81c36.61-17.31,73.23-34.62,109.84-51.92c0.61-0.29,1.21-0.57,1.82-0.86
				C658.65,325.26,654.09,317.5,648.88,319.97L648.88,319.97z"/>
		</g>
	</g>
	<line class="st4" x1="370.34" y1="805.36" x2="663.6" y2="659.09"/>
	<line class="st4" x1="248.99" y1="264.23" x2="516.97" y2="387.28"/>
</g>
<g id="Capa_2">
	<g>
		<g>
			<path class="st3" d="M370.84,815.46c5.79,0,5.8-9,0-9C365.05,806.46,365.04,815.46,370.84,815.46L370.84,815.46z"/>
		</g>
	</g>
	<g>
		<g>
			<path class="st3" d="M663.42,669.65c44.26,17.97,88.53,35.93,132.79,53.9c6.23,2.53,12.46,5.06,18.69,7.59
				c-0.66-2.51-1.32-5.01-1.99-7.52c-27.49,21.25-54.99,42.5-82.48,63.75c-43.75,33.81-87.5,67.63-131.24,101.44
				c-9.94,7.69-19.89,15.37-29.83,23.06c1.82-0.23,3.64-0.47,5.45-0.7c-22.71-11.72-45.41-23.43-68.11-35.15
				c-36.2-18.68-72.4-37.36-108.61-56.04c-8.33-4.3-16.65-8.59-24.98-12.89c-5.14-2.65-9.7,5.11-4.54,7.77
				c22.71,11.72,45.41,23.43,68.12,35.15c36.2,18.68,72.4,37.36,108.61,56.04c8.33,4.3,16.65,8.59,24.98,12.89
				c1.99,1.03,3.78,0.59,5.45-0.7c27.49-21.25,54.99-42.5,82.48-63.75c43.75-33.81,87.5-67.63,131.24-101.44
				c9.94-7.69,19.89-15.37,29.83-23.06c3-2.32,0.72-6.42-1.99-7.52c-44.26-17.97-88.53-35.93-132.79-53.9
				c-6.23-2.53-12.46-5.06-18.69-7.59C660.45,658.8,658.11,667.5,663.42,669.65L663.42,669.65z"/>
		</g>
	</g>
</g>
<g id="Capa_7">
	<polygon class="st3" points="143.82,376.32 144.75,507.77 203.53,537.79 204.61,406.65 	"/>
	<polygon class="st3" points="396.66,508.81 398.25,725.67 505.29,666.95 504.11,456.55 	"/>
	<polygon class="st3" points="543.31,598.02 544.46,670.66 619.24,633.92 618.11,560.77 	"/>
	<polygon class="st3" points="160.7,546.9 160.7,621.05 209.59,648.74 209.59,579.55 	"/>
</g>
<g id="Capa_4">
	<g id="Capa_5">
		<polygon class="st5" points="437.05,333.25 405.54,319.46 395.03,256.55 420.89,247.92 		"/>
		<polygon class="st5" points="307.1,377.68 275.59,363.9 348.66,58.54 378.93,81.02 		"/>
		<path class="st5" d="M348.66,58.54l96.3-35.55c0,0,12.21-5.47,39.78-4.79c27.57,0.68,54.78,25.3,58.97,36.92
			s4.19,16.41,4.19,16.41l-181.54,61.41l-30.39-21.36L348.66,58.54z"/>
	</g>
	<g id="Capa_12">
	</g>
	<g>
		<g>
			<path class="st5" d="M365.64,72.14l86.44-33.26c49.19-18.93,86.03-13.16,68.07,61.07c-17.41,71.94-66.78,117.94-115.97,136.87
				l-26,10L354,346.71l-60.44,23.25L365.64,72.14z M415.04,176.13c23.89-9.19,39.87-27.81,46.08-53.46
				c6.21-25.66-4.44-29.04-28.34-19.85L411,111.2l-17.74,73.31L415.04,176.13z M398.27,220.39l53.4-67.92l32.34,144.21l-67.46,25.96
				L398.27,220.39z"/>
		</g>
	</g>
	<g>
		<g>
			<path class="st6" d="M378.93,81.01l91.41-32.07c52.02-18.25,91.3-11.9,73.37,62.34c-17.38,71.94-69.16,117.37-121.18,135.62
				l-27.5,9.65l-24.13,99.9L307,378.87L378.93,81.01z M433.12,186.15c25.27-8.86,41.96-27.3,48.16-52.97
				c6.2-25.66-5.19-29.22-30.46-20.35l-23.04,8.08l-17.71,73.32L433.12,186.15z M415.99,230.33l55.72-67.36l36.68,145.26
				l-71.34,25.03L415.99,230.33z"/>
		</g>
	</g>
</g>
<g id="Capa_13">
	<polyline class="st7" points="113.6,759.28 114.73,767.88 158.6,791.96 175.85,783.71 175.85,776.38 158.65,783.25 113.6,759.28 	
		"/>
	<polyline class="st7" points="170.88,789.75 170.36,798.41 188.41,808.32 189.67,799.75 170.88,789.75 	"/>
	<polygon class="st7" points="210.58,740.54 211.29,737.92 207.62,739.45 206.89,742.27 	"/>
	<polygon class="st7" points="266.28,771.1 268.81,768.52 264.33,770.2 	"/>
	<polygon class="st7" points="205.25,808.04 203.52,816.61 219.69,825.48 221.94,816.92 	"/>
	<polygon class="st7" points="240.74,820.95 238,829.01 247.66,834.31 250.71,826.25 	"/>
	<polygon class="st7" points="256.98,835.56 253.48,844.03 269.85,853.02 273.73,844.48 	"/>
	<polygon class="st7" points="289.33,852.77 284.97,861.31 303.02,871.22 307.96,862.69 	"/>
	<polygon class="st7" points="347.72,815.79 352.88,813.26 347.01,815.48 	"/>
	<polygon class="st7" points="355.2,887.82 348.78,896.33 366.84,906.24 373.83,897.74 	"/>
	<polygon class="st7" points="453.4,930.6 444.07,938.29 430.48,936.55 435.92,929.04 453.4,930.36 	"/>
	<polygon class="st7" points="479.55,910.77 489.3,906.6 512.45,906.5 502.17,909.65 	"/>
	<polygon class="st7" points="444.03,935.09 434.85,943.56 453.32,953.7 463.11,945.24 	"/>
	<polygon class="st7" points="489.76,959.42 479.14,967.87 498.24,978.35 509.48,969.91 	"/>
</g>
<g id="Capa_11">
	<g>
		<g>
			<path class="st7" d="M78.46,707.63c25.64-12.25,52.82-12.1,71.71-1.73c18.89,10.37,17.2,24.32-8.31,36.52
				c-25.64,12.25-53.54,12.44-72.43,2.08C50.53,734.13,52.82,719.89,78.46,707.63z M123.38,732.28
				c14.14-6.76,17.25-13.42,9.06-17.91c-8.19-4.49-21.37-3.36-35.51,3.39c-14.14,6.76-17.96,13.76-9.78,18.25
				C95.34,740.51,109.24,739.04,123.38,732.28z"/>
			<path class="st7" d="M192.6,730.66l18.05,9.91l-60.62,28.98l25.82,14.17l-17.25,8.25l-43.87-24.08L192.6,730.66z"/>
			<path class="st7" d="M248.23,761.19l18.05,9.91l-77.87,37.22l-18.05-9.91L248.23,761.19z"/>
			<path class="st7" d="M281.39,779.39l19.31,10.6l-21.58,20.88c-3.05,2.75-6.8,5.62-10.09,8.49l0.42,0.23
				c5.81-1.49,11.65-3.2,17.23-4.57l41.73-9.82l19.31,10.6l-77.87,37.22l-16.37-8.99l23-11c7.91-3.78,21.48-8.76,30.1-12.02
				l-0.42-0.23l-24.36,5.82l-34.15,7.7l-9.66-5.3l17.36-16.92l13.23-11.93l-0.42-0.23c-6.95,4.18-17.58,10.77-25.48,14.55l-23,11
				l-16.16-8.87L281.39,779.39z"/>
			<path class="st7" d="M362.84,824.09l24.98,13.71c14.9,8.18,21.48,18.18,1.83,27.58c-19.05,9.11-40.33,5.91-54.6-1.92l-7.35-4.03
				l-24.68,11.8l-18.05-9.91L362.84,824.09z M350.5,855.2c7.14,3.92,14.57,3.81,21.52,0.49c6.95-3.32,5.6-6.77-1.33-10.57
				l-6.09-3.34l-20.61,9.85L350.5,855.2z"/>
			<path class="st7" d="M426.65,859.11l18.05,9.91l-77.87,37.22l-18.05-9.91L426.65,859.11z"/>
			<path class="st7" d="M417.35,894.59c26.12-12.48,56.71-10.95,73.93-1.5c9.03,4.95,11.58,11.28,10.9,16.56l-22.62,1.12
				c0-3.45-0.97-6.43-5.58-8.97c-7.98-4.38-23.29-4.17-37.43,2.59c-14.62,6.99-16.88,14.11-8.07,18.94
				c5.25,2.88,12.56,3.69,19.09,3.59l-3.49,11.37c-13.44,0.5-25.15-1.99-33.96-6.83C392.69,921.9,390.75,907.31,417.35,894.59z"/>
			<path class="st7" d="M533.5,917.74l21.83,11.98l-57.09,48.63l-19.1-10.48l30.09-22.36c5.75-4.47,13.53-9.92,19.64-14.56
				l-0.42-0.23c-9.38,2.97-20.4,6.52-29.51,9.15l-45.62,13.83l-18.47-10.14L533.5,917.74z M482.22,936.22l33.38,18.32l-15.93,7.62
				l-33.38-18.32L482.22,936.22z"/>
		</g>
	</g>
</g>
<g id="Capa_10">
	<g>
		<g>
			<path class="st8" d="M75.53,702.02c26.06-10.28,53.89-9.01,73.39,1.37c19.5,10.38,17.99,23.22-7.95,33.45
				c-26.06,10.28-54.62,9.3-74.12-1.08C47.34,725.38,49.47,712.29,75.53,702.02z M121.9,726.69c14.37-5.67,17.45-11.7,9-16.2
				c-8.45-4.5-21.93-4-36.3,1.67c-14.37,5.67-18.18,11.99-9.73,16.48C93.32,733.14,107.53,732.36,121.9,726.69z"/>
			<path class="st8" d="M192.75,728.05l18.64,9.92l-61.62,24.3l26.65,14.18l-17.54,6.92l-45.29-24.1L192.75,728.05z"/>
			<path class="st8" d="M250.17,758.61l18.64,9.92l-79.15,31.22l-18.64-9.91L250.17,758.61z"/>
			<path class="st8" d="M284.41,776.82l19.94,10.61l-21.77,18.42c-3.08,2.42-6.87,4.92-10.2,7.44l0.43,0.23
				c5.93-1.13,11.88-2.48,17.57-3.51l42.58-7.36l19.94,10.61l-79.15,31.22l-16.9-8.99l23.38-9.22c8.04-3.17,21.85-7.21,30.64-9.88
				l-0.43-0.23l-24.85,4.38l-34.85,5.71l-9.97-5.3l17.52-14.94l13.36-10.49l-0.43-0.23c-7.05,3.58-17.83,9.24-25.87,12.41
				l-23.38,9.22l-16.69-8.88L284.41,776.82z"/>
			<path class="st8" d="M368.48,821.56l25.79,13.72c15.39,8.19,22.27,17.72,2.3,25.59c-19.36,7.64-41.2,3.8-55.94-4.04l-7.58-4.04
				l-25.09,9.89l-18.64-9.92L368.48,821.56z M356.33,849.84c7.37,3.92,14.97,4.13,22.04,1.35c7.06-2.79,5.62-6.03-1.53-9.84
				l-6.28-3.34l-20.95,8.26L356.33,849.84z"/>
			<path class="st8" d="M434.35,856.6l18.64,9.91l-79.15,31.22l-18.64-9.92L434.35,856.6z"/>
			<path class="st8" d="M425.37,889.06c26.55-10.47,57.9-7.78,75.67,1.67c9.32,4.96,12.03,10.91,11.41,15.77l-23.15,0.1
				c-0.06-3.19-1.09-5.99-5.86-8.53c-8.23-4.38-23.91-4.82-38.28,0.84c-14.86,5.86-17.07,12.35-7.97,17.2
				c5.42,2.88,12.92,3.94,19.6,4.11l-3.4,10.38c-13.75-0.1-25.78-2.88-34.88-7.73C400.54,913.3,398.33,899.72,425.37,889.06z"/>
			<path class="st8" d="M544.65,915.29l22.54,11.99l-57.7,42.63l-19.72-10.49l30.46-19.44c5.82-3.9,13.7-8.62,19.88-12.66
				l-0.43-0.23c-9.55,2.36-20.79,5.19-30.07,7.24l-46.5,10.91l-19.07-10.15L544.65,915.29z M492.43,930.26l34.45,18.33l-16.2,6.39
				l-34.45-18.33L492.43,930.26z"/>
		</g>
	</g>
</g>
</svg>
